<mxfile host="app.diagrams.net" agent="Mozilla/5.0 (Windows NT 10.0; Win64; x64; rv:134.0) Gecko/20100101 Firefox/134.0" version="26.0.10">
  <diagram name="Page-1" id="0LnV7ETqTs7hgSCRXFs9">
    <mxGraphModel dx="2440" dy="1301" grid="0" gridSize="10" guides="1" tooltips="1" connect="1" arrows="1" fold="1" page="1" pageScale="1" pageWidth="1100" pageHeight="850" math="0" shadow="0">
      <root>
        <mxCell id="0" />
        <mxCell id="1" parent="0" />
        <mxCell id="JAaSVqaNoPK4AC_1vTfK-8" style="edgeStyle=orthogonalEdgeStyle;rounded=0;orthogonalLoop=1;jettySize=auto;html=1;exitX=1;exitY=0.5;exitDx=0;exitDy=0;entryX=0.017;entryY=0.129;entryDx=0;entryDy=0;entryPerimeter=0;" parent="1" source="BCpdqVNQJVRz4uYAB1dM-1" target="BCpdqVNQJVRz4uYAB1dM-32" edge="1">
          <mxGeometry relative="1" as="geometry" />
        </mxCell>
        <mxCell id="JAaSVqaNoPK4AC_1vTfK-9" value="&lt;div&gt;&lt;b&gt;&lt;u&gt;sh:property&lt;/u&gt;&lt;/b&gt;&lt;/div&gt;&lt;div&gt;&lt;b&gt;&lt;u&gt;&lt;br&gt;&lt;/u&gt;&lt;/b&gt;&lt;/div&gt;" style="edgeLabel;html=1;align=center;verticalAlign=middle;resizable=0;points=[];" parent="JAaSVqaNoPK4AC_1vTfK-8" vertex="1" connectable="0">
          <mxGeometry x="-0.4503" y="-2" relative="1" as="geometry">
            <mxPoint as="offset" />
          </mxGeometry>
        </mxCell>
        <mxCell id="JAaSVqaNoPK4AC_1vTfK-12" style="rounded=0;orthogonalLoop=1;jettySize=auto;html=1;exitX=0.5;exitY=0;exitDx=0;exitDy=0;entryX=0.5;entryY=1;entryDx=0;entryDy=0;" parent="1" source="BCpdqVNQJVRz4uYAB1dM-2" target="BCpdqVNQJVRz4uYAB1dM-1" edge="1">
          <mxGeometry relative="1" as="geometry">
            <mxPoint x="747" y="137" as="targetPoint" />
          </mxGeometry>
        </mxCell>
        <mxCell id="JAaSVqaNoPK4AC_1vTfK-13" value="&lt;div style=&quot;border-color: var(--border-color);&quot;&gt;&lt;b style=&quot;border-color: var(--border-color);&quot;&gt;&lt;u style=&quot;border-color: var(--border-color);&quot;&gt;nen2660:isDescribedBy&lt;/u&gt;&lt;/b&gt;&lt;/div&gt;" style="edgeLabel;html=1;align=center;verticalAlign=middle;resizable=0;points=[];" parent="JAaSVqaNoPK4AC_1vTfK-12" vertex="1" connectable="0">
          <mxGeometry x="0.0127" y="-2" relative="1" as="geometry">
            <mxPoint as="offset" />
          </mxGeometry>
        </mxCell>
        <mxCell id="BCpdqVNQJVRz4uYAB1dM-1" value="&lt;div&gt;&lt;b&gt;Verkeersmaatregel&lt;/b&gt;&lt;/div&gt;&lt;div&gt;&lt;b&gt;(&lt;/b&gt;&lt;b&gt;&lt;/b&gt;&lt;b&gt;TrafficRegulation&lt;/b&gt;&lt;b&gt;)&lt;br&gt;&lt;/b&gt;&lt;/div&gt;&lt;div&gt;- toelichting&lt;br&gt;&lt;/div&gt;&lt;div&gt;- start/end date&lt;/div&gt;" style="rounded=0;whiteSpace=wrap;html=1;" parent="1" vertex="1">
          <mxGeometry x="307" y="27" width="120" height="60" as="geometry" />
        </mxCell>
        <mxCell id="7" style="edgeStyle=none;html=1;exitX=1;exitY=0.5;exitDx=0;exitDy=0;entryX=0;entryY=0.5;entryDx=0;entryDy=0;" parent="1" source="BCpdqVNQJVRz4uYAB1dM-2" target="zsQL0wGQAGFPRSmptsXq-15" edge="1">
          <mxGeometry relative="1" as="geometry">
            <mxPoint x="923" y="225.36970474967916" as="targetPoint" />
          </mxGeometry>
        </mxCell>
        <mxCell id="8" value="&lt;div style=&quot;border-color: var(--border-color);&quot;&gt;&lt;b style=&quot;border-color: var(--border-color);&quot;&gt;&lt;u style=&quot;border-color: var(--border-color);&quot;&gt;nen2660:&lt;/u&gt;&lt;/b&gt;&lt;/div&gt;&lt;div style=&quot;border-color: var(--border-color);&quot;&gt;&lt;b style=&quot;border-color: var(--border-color);&quot;&gt;&lt;u style=&quot;border-color: var(--border-color);&quot;&gt;isDescribedBy&lt;/u&gt;&lt;/b&gt;&lt;/div&gt;" style="edgeLabel;html=1;align=center;verticalAlign=middle;resizable=0;points=[];" parent="7" vertex="1" connectable="0">
          <mxGeometry x="-0.1927" relative="1" as="geometry">
            <mxPoint x="4" y="1" as="offset" />
          </mxGeometry>
        </mxCell>
        <mxCell id="BCpdqVNQJVRz4uYAB1dM-2" value="&lt;div&gt;&lt;b&gt;FysiekePlaat&lt;/b&gt;&lt;/div&gt;&lt;div&gt;&lt;b&gt;(&lt;/b&gt;&lt;b&gt;&lt;/b&gt;&lt;b&gt;RoadSign&lt;/b&gt;&lt;b&gt;)&lt;/b&gt;&lt;br&gt;&lt;/div&gt;&lt;div&gt;- geosparql:Feature&lt;br&gt;&lt;/div&gt;&lt;div&gt;- Geo-orientatiehoek&lt;/div&gt;&lt;div&gt;- ObjectStatus&lt;/div&gt;" style="rounded=0;whiteSpace=wrap;html=1;" parent="1" vertex="1">
          <mxGeometry x="307" y="198" width="120" height="90" as="geometry" />
        </mxCell>
        <mxCell id="zsQL0wGQAGFPRSmptsXq-16" style="edgeStyle=orthogonalEdgeStyle;rounded=0;orthogonalLoop=1;jettySize=auto;html=1;exitX=0.5;exitY=0;exitDx=0;exitDy=0;entryX=0;entryY=0.5;entryDx=0;entryDy=0;" parent="1" source="BCpdqVNQJVRz4uYAB1dM-22" target="BCpdqVNQJVRz4uYAB1dM-1" edge="1">
          <mxGeometry relative="1" as="geometry" />
        </mxCell>
        <mxCell id="zsQL0wGQAGFPRSmptsXq-17" value="&lt;b&gt;&lt;u&gt;nen2660:isDescribedBy&lt;/u&gt;&lt;/b&gt;" style="edgeLabel;html=1;align=center;verticalAlign=middle;resizable=0;points=[];" parent="zsQL0wGQAGFPRSmptsXq-16" vertex="1" connectable="0">
          <mxGeometry x="-0.2206" y="-3" relative="1" as="geometry">
            <mxPoint x="-7" y="-5" as="offset" />
          </mxGeometry>
        </mxCell>
        <mxCell id="BCpdqVNQJVRz4uYAB1dM-22" value="&lt;div&gt;&lt;b&gt;NetwerkLocatieVerkeersmaatregel&lt;/b&gt;&lt;/div&gt;&lt;div&gt;&lt;b&gt;(&lt;/b&gt;&lt;b&gt;&lt;/b&gt;&lt;b&gt;NetworkLocationTrafficRegulation&lt;/b&gt;&lt;b&gt;)&lt;/b&gt;&lt;/div&gt;&lt;div&gt;- strooknummer&lt;/div&gt;&lt;div&gt;- wegvakID&lt;/div&gt;&lt;div&gt;- wegvakrichting&lt;/div&gt;- wegvakfractieStart&lt;br&gt;- wegvakfractieEinde" style="rounded=0;whiteSpace=wrap;html=1;" parent="1" vertex="1">
          <mxGeometry x="22" y="345" width="226" height="120" as="geometry" />
        </mxCell>
        <mxCell id="BCpdqVNQJVRz4uYAB1dM-29" value="&lt;div&gt;&lt;b&gt;NetwerkLocatieFysiekePlaat&lt;/b&gt;&lt;/div&gt;&lt;div&gt;&lt;b&gt;(&lt;/b&gt;&lt;b&gt;NetworkLocationRoadSign)&lt;/b&gt;&lt;/div&gt;&lt;div&gt;- strooknummer&lt;/div&gt;&lt;div&gt;- wegvakID&lt;/div&gt;&lt;div&gt;- wegvakrichting&lt;/div&gt;&lt;div&gt;- wegvakfractie (percentage)&lt;br&gt;&lt;/div&gt;" style="rounded=0;whiteSpace=wrap;html=1;" parent="1" vertex="1">
          <mxGeometry x="277.5" y="345" width="179" height="120" as="geometry" />
        </mxCell>
        <mxCell id="BCpdqVNQJVRz4uYAB1dM-30" style="rounded=0;orthogonalLoop=1;jettySize=auto;html=1;exitX=0.5;exitY=0;exitDx=0;exitDy=0;" parent="1" source="BCpdqVNQJVRz4uYAB1dM-29" target="BCpdqVNQJVRz4uYAB1dM-2" edge="1">
          <mxGeometry relative="1" as="geometry">
            <mxPoint x="697" y="192" as="targetPoint" />
          </mxGeometry>
        </mxCell>
        <mxCell id="14" value="&lt;b&gt;&lt;u&gt;nen2660:contains&lt;/u&gt;&lt;/b&gt;" style="edgeLabel;html=1;align=center;verticalAlign=middle;resizable=0;points=[];" parent="BCpdqVNQJVRz4uYAB1dM-30" vertex="1" connectable="0">
          <mxGeometry x="0.2031" y="1" relative="1" as="geometry">
            <mxPoint x="1" y="6" as="offset" />
          </mxGeometry>
        </mxCell>
        <mxCell id="JAaSVqaNoPK4AC_1vTfK-14" style="rounded=0;orthogonalLoop=1;jettySize=auto;html=1;exitX=1;exitY=0.5;exitDx=0;exitDy=0;entryX=0.008;entryY=0.662;entryDx=0;entryDy=0;entryPerimeter=0;" parent="1" source="JAaSVqaNoPK4AC_1vTfK-5" target="BCpdqVNQJVRz4uYAB1dM-32" edge="1">
          <mxGeometry relative="1" as="geometry">
            <mxPoint x="887" y="473" as="targetPoint" />
          </mxGeometry>
        </mxCell>
        <mxCell id="15" value="&lt;div&gt;&lt;b&gt;&lt;u&gt;sh:property&lt;/u&gt;&lt;/b&gt;&lt;/div&gt;" style="edgeLabel;html=1;align=center;verticalAlign=middle;resizable=0;points=[];" parent="JAaSVqaNoPK4AC_1vTfK-14" vertex="1" connectable="0">
          <mxGeometry x="0.2212" y="4" relative="1" as="geometry">
            <mxPoint x="-13" y="-1" as="offset" />
          </mxGeometry>
        </mxCell>
        <mxCell id="BCpdqVNQJVRz4uYAB1dM-32" value="&lt;div&gt;&lt;b&gt;Properties&lt;/b&gt;&lt;/div&gt;&lt;div&gt;- zone&lt;/div&gt;&lt;div&gt;- time (condition of the regulation) (explicit &amp;amp; textual values)&lt;/div&gt;&lt;div&gt;- vehicletype (geldt voor)&lt;/div&gt;&lt;div&gt;- vehicletype (geldt niet voor)&lt;/div&gt;&lt;div&gt;- vehicletype (geldt voor special)&lt;/div&gt;&lt;div&gt;- vehicletype (geldt niet voor special)&lt;/div&gt;&lt;div&gt;- road conditions (wet/icy/...)&lt;/div&gt;&lt;div&gt;- local speed&lt;/div&gt;&lt;div&gt;- road speed category &lt;br&gt;&lt;/div&gt;&lt;div&gt;- advised speed&lt;/div&gt;&lt;div&gt;- priority (voorrang)&lt;br&gt;&lt;/div&gt;&lt;div&gt;...&lt;/div&gt;&lt;div&gt;&lt;br&gt;&lt;/div&gt;" style="rounded=0;whiteSpace=wrap;html=1;" parent="1" vertex="1">
          <mxGeometry x="952" y="11" width="120" height="350" as="geometry" />
        </mxCell>
        <mxCell id="JAaSVqaNoPK4AC_1vTfK-5" value="&lt;div&gt;&lt;b&gt;Icoon&lt;/b&gt;&lt;/div&gt;&lt;div&gt;&lt;b&gt;(Icon)&lt;br&gt;&lt;/b&gt;&lt;/div&gt;&lt;div&gt;&lt;b&gt;-&lt;/b&gt;type&lt;/div&gt;&lt;div&gt;-value&lt;/div&gt;" style="rounded=0;whiteSpace=wrap;html=1;" parent="1" vertex="1">
          <mxGeometry x="745" y="199" width="120" height="88" as="geometry" />
        </mxCell>
        <mxCell id="10" style="edgeStyle=none;html=1;exitX=1;exitY=0.5;exitDx=0;exitDy=0;entryX=0;entryY=0.5;entryDx=0;entryDy=0;" parent="1" source="zsQL0wGQAGFPRSmptsXq-15" target="JAaSVqaNoPK4AC_1vTfK-5" edge="1">
          <mxGeometry relative="1" as="geometry">
            <mxPoint x="1077" y="197" as="targetPoint" />
            <mxPoint x="1050.5" y="218.25" as="sourcePoint" />
          </mxGeometry>
        </mxCell>
        <mxCell id="11" value="&lt;div&gt;&lt;b&gt;&lt;u&gt;nen2660:&lt;/u&gt;&lt;/b&gt;&lt;/div&gt;&lt;div&gt;&lt;b&gt;&lt;u&gt;hasPart&lt;/u&gt;&lt;/b&gt;&lt;/div&gt;" style="edgeLabel;html=1;align=center;verticalAlign=middle;resizable=0;points=[];" parent="10" vertex="1" connectable="0">
          <mxGeometry x="-0.2535" relative="1" as="geometry">
            <mxPoint x="5" y="1" as="offset" />
          </mxGeometry>
        </mxCell>
        <mxCell id="zsQL0wGQAGFPRSmptsXq-15" value="&lt;div&gt;&lt;b&gt;Achtergrondschild&lt;/b&gt;&lt;/div&gt;&lt;div&gt;&lt;b&gt;(&lt;/b&gt;&lt;b&gt;&lt;/b&gt;&lt;b&gt;BackgroundShield&lt;/b&gt;&lt;b&gt;)&lt;br&gt;&lt;/b&gt;&lt;/div&gt;&lt;div&gt;&lt;span style=&quot;background-color: initial;&quot;&gt;- ral colour&lt;/span&gt;&lt;br&gt;&lt;/div&gt;" style="rounded=0;whiteSpace=wrap;html=1;" parent="1" vertex="1">
          <mxGeometry x="529" y="213" width="129" height="60" as="geometry" />
        </mxCell>
      </root>
    </mxGraphModel>
  </diagram>
</mxfile>
